name ./resultDataOpenSim/trcMotMarkerGrf/sub06/grf-03-01.mot
datacolumns 19
datarows 12
range 0.99200000 1.03600000
endheader

                time	     ground_force_vx	     ground_force_vy	     ground_force_vz	     ground_force_px	     ground_force_py	     ground_force_pz	   l_ground_force_vx	   l_ground_force_vy	   l_ground_force_vz	   l_ground_force_px	   l_ground_force_py	   l_ground_force_pz	     ground_torque_x	     ground_torque_y	     ground_torque_z	   l_ground_torque_x	   l_ground_torque_y	   l_ground_torque_z	
          0.99200000	          0.00000000	          0.00000000	          0.00000000	          0.00000000	          0.00000000	          0.00000000	        149.61862783	        771.01353599	         33.13437383	          0.04567265	         -0.05000000	         -0.01827911	          0.00000000	          0.00000000	          0.00000000	          0.00000000	         -2.92654819	          0.00000000	
          0.99600000	          0.00000000	          0.00000000	          0.00000000	          0.00000000	          0.00000000	          0.00000000	        158.37800566	        779.10184790	         31.75924063	          0.04645377	         -0.05000000	         -0.01788016	          0.00000000	          0.00000000	          0.00000000	          0.00000000	         -3.03038404	          0.00000000	
          1.00000000	          0.00000000	          0.00000000	          0.00000000	          0.00000000	          0.00000000	          0.00000000	        167.13843794	        784.79657067	         30.34738033	          0.04722346	         -0.05000000	         -0.01747871	          0.00000000	          0.00000000	          0.00000000	          0.00000000	         -3.11144613	          0.00000000	
          1.00400000	          0.00000000	          0.00000000	          0.00000000	          0.00000000	          0.00000000	          0.00000000	        175.72325304	        788.01720614	         28.98419388	          0.04797489	         -0.05000000	         -0.01706641	          0.00000000	          0.00000000	          0.00000000	          0.00000000	         -3.16587467	          0.00000000	
          1.00800000	          0.00000000	          0.00000000	          0.00000000	          0.00000000	          0.00000000	          0.00000000	        183.96787143	        788.61882869	         27.75052739	          0.04870636	         -0.05000000	         -0.01663816	          0.00000000	          0.00000000	          0.00000000	          0.00000000	         -3.19116901	          0.00000000	
          1.01200000	          0.00000000	          0.00000000	          0.00000000	          0.00000000	          0.00000000	          0.00000000	        191.74086847	        786.48163942	         26.68206716	          0.04943359	         -0.05000000	         -0.01618446	          0.00000000	          0.00000000	          0.00000000	          0.00000000	         -3.18656733	          0.00000000	
          1.01600000	          0.00000000	          0.00000000	          0.00000000	          0.00000000	          0.00000000	          0.00000000	        198.94688873	        781.55086430	         25.74874748	          0.05017311	         -0.05000000	         -0.01570227	          0.00000000	          0.00000000	          0.00000000	          0.00000000	         -3.15319167	          0.00000000	
          1.02000000	          0.00000000	          0.00000000	          0.00000000	          0.00000000	          0.00000000	          0.00000000	        205.50779216	        773.81200819	         24.86519308	          0.05091145	         -0.05000000	         -0.01520840	          0.00000000	          0.00000000	          0.00000000	          0.00000000	         -3.09373819	          0.00000000	
          1.02400000	          0.00000000	          0.00000000	          0.00000000	          0.00000000	          0.00000000	          0.00000000	        211.33996601	        763.23501889	         23.92500785	          0.05161386	         -0.05000000	         -0.01472598	          0.00000000	          0.00000000	          0.00000000	          0.00000000	         -3.01176013	          0.00000000	
          1.02800000	          0.00000000	          0.00000000	          0.00000000	          0.00000000	          0.00000000	          0.00000000	        216.34978321	        749.70194645	         22.84537351	          0.05227245	         -0.05000000	         -0.01427063	          0.00000000	          0.00000000	          0.00000000	          0.00000000	         -2.91083473	          0.00000000	
          1.03200000	          0.00000000	          0.00000000	          0.00000000	          0.00000000	          0.00000000	          0.00000000	        220.43477173	        732.96507700	         21.58932652	          0.05291449	         -0.05000000	         -0.01384701	          0.00000000	          0.00000000	          0.00000000	          0.00000000	         -2.79395374	          0.00000000	
          1.03600000	          0.00000000	          0.00000000	          0.00000000	          0.00000000	          0.00000000	          0.00000000	        223.46349643	        712.68044881	         20.14359957	          0.05356627	         -0.05000000	         -0.01345612	          0.00000000	          0.00000000	          0.00000000	          0.00000000	         -2.66331724	          0.00000000	
